M48
;Layer_Color=9474304
;FILE_FORMAT=4:4
METRIC,LZ
;TYPE=PLATED
T1F00S00C0.3500
T2F00S00C0.4000
T3F00S00C1.5000
%
T01
X000355Y0004475
X000425
X00046Y0005175
X00039
X000425Y0005875
X000495
X000565
X00053Y0006575
X00046
X00056Y000385
X000525Y000315
X000595
X001015
X001085
X00105Y000385
X001015Y000455
X00098Y000525
Y000665
X00116Y0006575
X00123
X0013
X00137
X00144
X001405Y0005875
X001475
X00144Y0005175
X00137
X0013
X00123
X00116
X001125Y0005875
X001195
X001265
X001335
Y0004475
X001405
X001265
X001195
X00154Y000385
X001505Y001575
X00154Y001645
X00147
X0014
X00133
X00126
X00119
X00112
X00105
X00098
X00091
X000385Y001295
X00035Y001225
T02
X000285Y0004475
X00032Y0005175
X0003036Y00076109
X0002336
X0001636
X0001286Y00083109
X0001636Y00090109
X0001286Y00097109
X0001636Y00104109
X0001986Y00111109
X0001286
X0002686
X0003036Y00104109
X0002686Y00097109
X0003036Y00090109
X0003386Y00083109
X0002686
X0003736Y00076109
X0004436
X0005136
X0005486Y00083109
X00067Y0007975
Y0008675
X000635Y0007275
X00067Y0006575
X0006
X000635Y0005875
X00084833Y00089609
X000735Y001085
X000665
X00063Y001155
X0007
X00077
X000735Y001225
X000665
X000595
X000525
X000455
X00049Y001295
X00056
X00063
X0007
X00077
X0007511Y00158359
X000425Y001585
X00099005Y00115256
X001125Y0011475
X001195
X001265
X001335
X001405
X001475
X00144Y0010775
X001475Y0010075
X00144Y0009375
X001475Y0008675
X00144Y0007975
X001475Y0007275
X001125
X00116Y0007975
X001125Y0008675
X00116Y0009375
X001125Y0010075
X00116Y0010775
T03
X0003011Y00019609
X0008011
X0013011
M30
