G04*
G04 #@! TF.GenerationSoftware,Altium Limited,Altium Designer,20.0.7 (75)*
G04*
G04 Layer_Color=32896*
%FSLAX44Y44*%
%MOMM*%
G71*
G01*
G75*
%ADD10C,0.1500*%
%ADD11C,0.2000*%
%ADD35C,0.2032*%
%ADD36C,0.1800*%
D10*
X86502Y89609D02*
Y134849D01*
X36718Y104369D02*
Y134849D01*
D11*
X76250Y58250D02*
X78750D01*
X76250Y44750D02*
X78750D01*
X76250Y75000D02*
X78750D01*
X76250Y61500D02*
X78750D01*
X15750Y45500D02*
X18250D01*
X15750Y59000D02*
X18250D01*
X123860Y130359D02*
Y132859D01*
X137360Y130359D02*
Y132859D01*
X106860Y130359D02*
Y132859D01*
X120360Y130359D02*
Y132859D01*
X90983Y142108D02*
X91360Y142109D01*
X98860D02*
X99237Y142110D01*
X92110Y111609D02*
Y114609D01*
X98110Y111609D02*
Y114609D01*
X140860Y130359D02*
Y132859D01*
X154360Y130359D02*
Y132859D01*
X137502Y52747D02*
X140834D01*
X142500Y51081D01*
Y44416D01*
X140834Y42750D01*
X137502D01*
X135836Y44416D01*
Y51081D01*
X137502Y52747D01*
X132503D02*
Y44416D01*
X130837Y42750D01*
X127505D01*
X125839Y44416D01*
Y52747D01*
X122506D02*
X115842D01*
X119174D01*
Y42750D01*
X87836Y40081D02*
X89502Y41747D01*
X92834D01*
X94500Y40081D01*
Y33416D01*
X92834Y31750D01*
X89502D01*
X87836Y33416D01*
Y36748D01*
X91168D01*
X84503Y31750D02*
Y41747D01*
X77839Y31750D01*
Y41747D01*
X74506D02*
Y31750D01*
X69508D01*
X67842Y33416D01*
Y40081D01*
X69508Y41747D01*
X74506D01*
X48500Y51747D02*
X45168D01*
X46834D01*
Y41750D01*
X48500D01*
X45168D01*
X40169D02*
Y51747D01*
X33505Y41750D01*
Y51747D01*
D35*
X34210Y98959D02*
Y100829D01*
X30860Y95609D02*
X34210Y98959D01*
X5010D02*
Y100829D01*
Y98959D02*
X8360Y95609D01*
X32310Y141609D02*
X34210D01*
X5010D02*
X6910D01*
X5010Y100829D02*
Y141609D01*
X34210Y100829D02*
Y141609D01*
X5010Y114359D02*
X34210D01*
D36*
X149993Y103914D02*
X143995D01*
Y102414D01*
X149993Y96416D01*
Y94916D01*
X140996Y99415D02*
X134998D01*
X131999Y102414D02*
X130499Y103914D01*
X127500D01*
X126001Y102414D01*
Y100915D01*
X127500Y99415D01*
X129000D01*
X127500D01*
X126001Y97915D01*
Y96416D01*
X127500Y94916D01*
X130499D01*
X131999Y96416D01*
X123002Y102414D02*
X121502Y103914D01*
X118503D01*
X117004Y102414D01*
Y96416D01*
X118503Y94916D01*
X121502D01*
X123002Y96416D01*
Y102414D01*
X114005Y103914D02*
Y97915D01*
X111006Y94916D01*
X108007Y97915D01*
Y103914D01*
X148494Y88797D02*
X154492D01*
Y84298D01*
X151493Y85798D01*
X149993D01*
X148494Y84298D01*
Y81299D01*
X149993Y79800D01*
X152992D01*
X154492Y81299D01*
X145495Y88797D02*
Y82799D01*
X142496Y79800D01*
X139497Y82799D01*
Y88797D01*
X123002D02*
X126001D01*
X127500Y87298D01*
Y81299D01*
X126001Y79800D01*
X123002D01*
X121502Y81299D01*
Y87298D01*
X123002Y88797D01*
X118503D02*
Y81299D01*
X117004Y79800D01*
X114005D01*
X112505Y81299D01*
Y88797D01*
X109506D02*
X103508D01*
X106507D01*
Y79800D01*
X153700Y169547D02*
Y159550D01*
X148702D01*
X147036Y161216D01*
Y167881D01*
X148702Y169547D01*
X153700D01*
X137039Y167881D02*
X138705Y169547D01*
X142037D01*
X143703Y167881D01*
Y161216D01*
X142037Y159550D01*
X138705D01*
X137039Y161216D01*
X133706Y169547D02*
Y159550D01*
X128708D01*
X127042Y161216D01*
Y167881D01*
X128708Y169547D01*
X133706D01*
X117045Y167881D02*
X118711Y169547D01*
X122044D01*
X123710Y167881D01*
Y161216D01*
X122044Y159550D01*
X118711D01*
X117045Y161216D01*
X98718Y159550D02*
Y169547D01*
X103716Y164548D01*
X97052D01*
X93719Y159550D02*
Y166215D01*
X90387Y169547D01*
X87055Y166215D01*
Y159550D01*
Y164548D01*
X93719D01*
X73726Y169547D02*
Y162882D01*
X70394Y159550D01*
X67061Y162882D01*
Y169547D01*
X57064Y159550D02*
X63729D01*
X57064Y166215D01*
Y167881D01*
X58731Y169547D01*
X62063D01*
X63729Y167881D01*
X53732Y159550D02*
Y161216D01*
X52066D01*
Y159550D01*
X53732D01*
X45402Y167881D02*
X43735Y169547D01*
X40403D01*
X38737Y167881D01*
Y161216D01*
X40403Y159550D01*
X43735D01*
X45402Y161216D01*
Y167881D01*
X147702Y156547D02*
X153700D01*
Y147550D01*
X147702D01*
X153700Y152049D02*
X150701D01*
X144703Y147550D02*
Y156547D01*
X140204D01*
X138705Y155048D01*
Y152049D01*
X140204Y150549D01*
X144703D01*
X141704D02*
X138705Y147550D01*
X129708D02*
X135706D01*
X129708Y153548D01*
Y155048D01*
X131207Y156547D01*
X134206D01*
X135706Y155048D01*
X126709D02*
X125209Y156547D01*
X122210D01*
X120711Y155048D01*
Y149050D01*
X122210Y147550D01*
X125209D01*
X126709Y149050D01*
Y155048D01*
X111714Y147550D02*
X117712D01*
X111714Y153548D01*
Y155048D01*
X113213Y156547D01*
X116212D01*
X117712Y155048D01*
X102717Y147550D02*
X108715D01*
X102717Y153548D01*
Y155048D01*
X104216Y156547D01*
X107215D01*
X108715Y155048D01*
M02*
