G04*
G04 #@! TF.GenerationSoftware,Altium Limited,Altium Designer,20.0.7 (75)*
G04*
G04 Layer_Color=65535*
%FSLAX44Y44*%
%MOMM*%
G71*
G01*
G75*
%ADD10C,0.1500*%
%ADD11C,0.2000*%
D10*
X12610Y-391D02*
Y19609D01*
Y-391D02*
X47610D01*
Y19609D01*
X62610Y-391D02*
Y19609D01*
Y-391D02*
X97610D01*
Y19609D01*
X112610Y-391D02*
Y19609D01*
Y-391D02*
X147610D01*
Y19609D01*
X2641D02*
X12610D01*
X2500Y19750D02*
Y172750D01*
X157500D01*
Y19750D02*
Y172750D01*
X147610Y19609D02*
X157359D01*
X97610D02*
X112610D01*
X47610D02*
X62610D01*
X157359D02*
X157500Y19750D01*
X2500D02*
X2641Y19609D01*
X22610Y94609D02*
Y144609D01*
X142610D01*
Y44609D02*
Y144609D01*
X22610Y44609D02*
X142610D01*
X22610D02*
Y94609D01*
D11*
X8483Y129610D02*
X8860Y129609D01*
X16360D02*
X16737Y129608D01*
X21000Y160500D02*
X24000D01*
X21000Y166500D02*
X24000D01*
X21110Y155109D02*
X24110D01*
X21110Y149109D02*
X24110D01*
X53500Y160500D02*
X56500D01*
X53500Y166500D02*
X56500D01*
X123610Y155109D02*
X126610D01*
X123610Y149109D02*
X126610D01*
X153860Y139609D02*
X154237Y139608D01*
X145983Y139610D02*
X146360Y139609D01*
X153421Y126860D02*
X153798Y126859D01*
M02*
