G04*
G04 #@! TF.GenerationSoftware,Altium Limited,Altium Designer,20.0.7 (75)*
G04*
G04 Layer_Physical_Order=1*
G04 Layer_Color=255*
%FSLAX44Y44*%
%MOMM*%
G71*
G01*
G75*
%ADD10C,0.1500*%
G04:AMPARAMS|DCode=12|XSize=0.8mm|YSize=0.9mm|CornerRadius=0.06mm|HoleSize=0mm|Usage=FLASHONLY|Rotation=270.000|XOffset=0mm|YOffset=0mm|HoleType=Round|Shape=RoundedRectangle|*
%AMROUNDEDRECTD12*
21,1,0.8000,0.7800,0,0,270.0*
21,1,0.6800,0.9000,0,0,270.0*
1,1,0.1200,-0.3900,-0.3400*
1,1,0.1200,-0.3900,0.3400*
1,1,0.1200,0.3900,0.3400*
1,1,0.1200,0.3900,-0.3400*
%
%ADD12ROUNDEDRECTD12*%
%ADD13R,4.1000X4.1000*%
G04:AMPARAMS|DCode=14|XSize=0.9mm|YSize=0.8mm|CornerRadius=0.06mm|HoleSize=0mm|Usage=FLASHONLY|Rotation=0.000|XOffset=0mm|YOffset=0mm|HoleType=Round|Shape=RoundedRectangle|*
%AMROUNDEDRECTD14*
21,1,0.9000,0.6800,0,0,0.0*
21,1,0.7800,0.8000,0,0,0.0*
1,1,0.1200,0.3900,-0.3400*
1,1,0.1200,-0.3900,-0.3400*
1,1,0.1200,-0.3900,0.3400*
1,1,0.1200,0.3900,0.3400*
%
%ADD14ROUNDEDRECTD14*%
%ADD19C,0.2540*%
%ADD20C,0.2500*%
%ADD21R,3.0000X4.0000*%
%ADD22C,0.6000*%
G36*
X70516Y164859D02*
X70027Y164847D01*
X69589Y164809D01*
X69205Y164747D01*
X68873Y164659D01*
X68593Y164547D01*
X68367Y164409D01*
X68193Y164247D01*
X68071Y164059D01*
X68002Y163847D01*
X67986Y163609D01*
X67836Y167336D01*
X67859Y167340D01*
X67930Y167344D01*
X70279Y167359D01*
X70516Y164859D01*
D02*
G37*
G36*
X42014Y162069D02*
X41993Y162311D01*
X41919Y162526D01*
X41793Y162717D01*
X41615Y162882D01*
X41384Y163022D01*
X41101Y163136D01*
X40765Y163225D01*
X40377Y163288D01*
X39936Y163327D01*
X39444Y163339D01*
Y165879D01*
X39947Y165892D01*
X40397Y165930D01*
X40795Y165993D01*
X41141Y166081D01*
X41435Y166194D01*
X41676Y166332D01*
X41864Y166496D01*
X42000Y166685D01*
X42084Y166898D01*
X42115Y167138D01*
X42014Y162069D01*
D02*
G37*
G36*
X35416Y166898D02*
X35500Y166685D01*
X35636Y166496D01*
X35824Y166332D01*
X36065Y166194D01*
X36359Y166081D01*
X36704Y165993D01*
X37103Y165930D01*
X37553Y165892D01*
X38056Y165879D01*
Y163339D01*
X37564Y163327D01*
X37123Y163288D01*
X36735Y163225D01*
X36399Y163136D01*
X36116Y163022D01*
X35885Y162882D01*
X35707Y162717D01*
X35581Y162526D01*
X35507Y162311D01*
X35486Y162069D01*
X35385Y167138D01*
X35416Y166898D01*
D02*
G37*
G36*
X46037Y161741D02*
X45825Y161515D01*
X45644Y161291D01*
X45493Y161070D01*
X45373Y160851D01*
X45283Y160634D01*
X45224Y160420D01*
X45196Y160209D01*
X45199Y160000D01*
X45232Y159793D01*
X45296Y159589D01*
X41467Y161317D01*
X41651Y161395D01*
X41853Y161503D01*
X42072Y161639D01*
X42309Y161805D01*
X42838Y162222D01*
X43438Y162756D01*
X44109Y163405D01*
X46037Y161741D01*
D02*
G37*
G36*
X77915Y157234D02*
X77891Y157020D01*
X77896Y156804D01*
X77932Y156587D01*
X77996Y156369D01*
X78090Y156149D01*
X78213Y155928D01*
X78366Y155705D01*
X78548Y155481D01*
X78759Y155256D01*
X76336Y154087D01*
X76116Y154300D01*
X75472Y154842D01*
X75262Y154990D01*
X74851Y155236D01*
X74650Y155335D01*
X74451Y155418D01*
X74254Y155484D01*
X77968Y157447D01*
X77915Y157234D01*
D02*
G37*
G36*
X157610Y153845D02*
X157279Y153601D01*
X156340Y153282D01*
X155414Y153900D01*
X154010Y154180D01*
X148755D01*
X148305Y154571D01*
X147688Y155188D01*
X146276Y156131D01*
X144610Y156463D01*
X140990D01*
X140901Y156914D01*
X140105Y158105D01*
X138914Y158900D01*
X137510Y159180D01*
X129710D01*
X128305Y158900D01*
X127114Y158105D01*
X126319Y156914D01*
X126158Y156109D01*
X124061D01*
X123901Y156914D01*
X123105Y158105D01*
X121914Y158900D01*
X120510Y159180D01*
X112710D01*
X111305Y158900D01*
X110114Y158105D01*
X109319Y156914D01*
X109225Y156442D01*
X94405D01*
X81674Y169173D01*
X80268Y170113D01*
X78610Y170443D01*
X68043D01*
X67400Y170571D01*
X59600D01*
X58195Y170291D01*
X57005Y169495D01*
X56209Y168305D01*
X56049Y167500D01*
X53951D01*
X53791Y168305D01*
X52995Y169495D01*
X51805Y170291D01*
X50400Y170571D01*
X42600D01*
X41195Y170291D01*
X40005Y169495D01*
X39649Y168963D01*
X37851D01*
X37496Y169495D01*
X36305Y170291D01*
X34900Y170571D01*
X27100D01*
X25695Y170291D01*
X24505Y169495D01*
X23709Y168305D01*
X23549Y167500D01*
X18500D01*
Y160377D01*
X18094Y159386D01*
X17363Y159180D01*
X10210D01*
X8805Y158900D01*
X7614Y158105D01*
X6819Y156914D01*
X6539Y155509D01*
Y148709D01*
X6819Y147305D01*
X7614Y146114D01*
X8647Y145424D01*
X8675Y144861D01*
X8675Y144861D01*
X8468Y144132D01*
X7305Y143900D01*
X6114Y143105D01*
X5318Y141914D01*
X5039Y140509D01*
Y133709D01*
X5318Y132305D01*
X6114Y131114D01*
X7305Y130318D01*
X7614Y130257D01*
Y128962D01*
X7305Y128900D01*
X6114Y128105D01*
X5318Y126914D01*
X5039Y125509D01*
Y118709D01*
X5318Y117305D01*
X6114Y116114D01*
X7045Y115492D01*
X7681Y114158D01*
X7208Y113450D01*
X6742Y111109D01*
X7208Y108768D01*
X7601Y108179D01*
X7533Y108052D01*
X7284Y107678D01*
X7254Y107529D01*
X7182Y107395D01*
X7139Y106948D01*
X7051Y106508D01*
Y98662D01*
X6742Y97109D01*
X7051Y95557D01*
Y84662D01*
X6742Y83109D01*
X7051Y81557D01*
Y75609D01*
X7051Y75609D01*
X7284Y74439D01*
X7947Y73446D01*
X7947Y73446D01*
X10947Y70446D01*
X11939Y69783D01*
X13110Y69550D01*
X13110Y69550D01*
X39066D01*
X39552Y68377D01*
X13784Y42609D01*
X12110D01*
Y39905D01*
X12051Y39609D01*
X12051Y39609D01*
Y27109D01*
X2610D01*
Y172109D01*
X157610D01*
Y153845D01*
D02*
G37*
G36*
X112124Y149609D02*
X112098Y149847D01*
X112022Y150059D01*
X111896Y150247D01*
X111719Y150409D01*
X111491Y150547D01*
X111213Y150659D01*
X110884Y150747D01*
X110504Y150809D01*
X110074Y150847D01*
X109593Y150859D01*
Y153359D01*
X110074Y153372D01*
X110504Y153409D01*
X110884Y153472D01*
X111213Y153559D01*
X111491Y153672D01*
X111719Y153809D01*
X111896Y153972D01*
X112022Y154159D01*
X112098Y154372D01*
X112124Y154609D01*
Y149609D01*
D02*
G37*
G36*
X138121Y154408D02*
X138198Y154192D01*
X138327Y154002D01*
X138507Y153836D01*
X138738Y153697D01*
X139021Y153582D01*
X139355Y153494D01*
X139741Y153430D01*
X140178Y153392D01*
X140666Y153379D01*
Y150839D01*
X140178Y150827D01*
X139741Y150788D01*
X139355Y150725D01*
X139021Y150636D01*
X138738Y150522D01*
X138507Y150382D01*
X138327Y150217D01*
X138198Y150027D01*
X138121Y149811D01*
X138096Y149569D01*
Y154649D01*
X138121Y154408D01*
D02*
G37*
G36*
X35621D02*
X35698Y154192D01*
X35827Y154002D01*
X36007Y153836D01*
X36238Y153697D01*
X36521Y153582D01*
X36855Y153494D01*
X37241Y153430D01*
X37678Y153392D01*
X38166Y153379D01*
Y150839D01*
X37678Y150827D01*
X37241Y150788D01*
X36855Y150725D01*
X36521Y150636D01*
X36238Y150522D01*
X36007Y150382D01*
X35827Y150217D01*
X35698Y150027D01*
X35621Y149811D01*
X35596Y149569D01*
Y154649D01*
X35621Y154408D01*
D02*
G37*
G36*
X145988Y152533D02*
X147421Y151285D01*
X147600Y151176D01*
X147743Y151112D01*
X147850Y151096D01*
X147921Y151126D01*
X145593Y148798D01*
X145623Y148869D01*
X145606Y148976D01*
X145543Y149119D01*
X145434Y149298D01*
X145277Y149513D01*
X144825Y150050D01*
X144186Y150731D01*
X143797Y151126D01*
X145593Y152922D01*
X145988Y152533D01*
D02*
G37*
G36*
X14717Y148108D02*
X14590Y148062D01*
X14477Y147986D01*
X14380Y147878D01*
X14297Y147741D01*
X14230Y147572D01*
X14177Y147373D01*
X14140Y147144D01*
X14117Y146884D01*
X14110Y146593D01*
X12610D01*
X12602Y146884D01*
X12580Y147144D01*
X12542Y147373D01*
X12490Y147572D01*
X12422Y147741D01*
X12340Y147878D01*
X12242Y147986D01*
X12130Y148062D01*
X12002Y148108D01*
X11860Y148123D01*
X14860D01*
X14717Y148108D01*
D02*
G37*
G36*
X118872Y148098D02*
X118660Y148022D01*
X118472Y147896D01*
X118310Y147718D01*
X118172Y147491D01*
X118060Y147212D01*
X117972Y146883D01*
X117910Y146504D01*
X117872Y146074D01*
X117860Y145593D01*
X115360D01*
X115347Y146074D01*
X115310Y146504D01*
X115247Y146883D01*
X115160Y147212D01*
X115047Y147491D01*
X114910Y147718D01*
X114747Y147896D01*
X114560Y148022D01*
X114347Y148098D01*
X114110Y148123D01*
X119110D01*
X118872Y148098D01*
D02*
G37*
G36*
X14117Y142335D02*
X14140Y142075D01*
X14177Y141845D01*
X14230Y141646D01*
X14297Y141478D01*
X14380Y141340D01*
X14477Y141233D01*
X14590Y141157D01*
X14717Y141111D01*
X14860Y141095D01*
X11860D01*
X12002Y141111D01*
X12130Y141157D01*
X12242Y141233D01*
X12340Y141340D01*
X12422Y141478D01*
X12490Y141646D01*
X12542Y141845D01*
X12580Y142075D01*
X12602Y142335D01*
X12610Y142626D01*
X14110D01*
X14117Y142335D01*
D02*
G37*
G36*
X100283Y119469D02*
X100308Y119179D01*
X100349Y118904D01*
X100407Y118644D01*
X100482Y118399D01*
X100574Y118169D01*
X100681Y117954D01*
X100806Y117753D01*
X100947Y117568D01*
X101105Y117398D01*
X96905D01*
X97062Y117568D01*
X97204Y117753D01*
X97328Y117954D01*
X97436Y118169D01*
X97527Y118399D01*
X97602Y118644D01*
X97660Y118904D01*
X97702Y119179D01*
X97726Y119469D01*
X97735Y119774D01*
X100275D01*
X100283Y119469D01*
D02*
G37*
G36*
X15158Y118098D02*
X14942Y118020D01*
X14752Y117892D01*
X14587Y117712D01*
X14447Y117481D01*
X14333Y117198D01*
X14244Y116864D01*
X14180Y116478D01*
X14142Y116041D01*
X14131Y115591D01*
X14138Y115322D01*
X14163Y115032D01*
X14204Y114757D01*
X14262Y114497D01*
X14337Y114252D01*
X14428Y114022D01*
X14536Y113807D01*
X14661Y113607D01*
X14802Y113422D01*
X14960Y113252D01*
X10760D01*
X10917Y113422D01*
X11058Y113607D01*
X11183Y113807D01*
X11291Y114022D01*
X11382Y114252D01*
X11457Y114497D01*
X11515Y114757D01*
X11556Y115032D01*
X11581Y115322D01*
X11589Y115591D01*
X11577Y116041D01*
X11539Y116478D01*
X11475Y116864D01*
X11386Y117198D01*
X11272Y117481D01*
X11132Y117712D01*
X10967Y117892D01*
X10777Y118020D01*
X10561Y118098D01*
X10320Y118123D01*
X15400D01*
X15158Y118098D01*
D02*
G37*
G36*
X32110Y110324D02*
X32110Y89609D01*
X39110Y82609D01*
X48110D01*
X50110Y84609D01*
X50110Y99609D01*
X52110Y101609D01*
X57110Y101609D01*
X59110Y99609D01*
X59110Y79609D01*
X52168Y72668D01*
X45110D01*
X45110Y72668D01*
X44814Y72609D01*
X13110D01*
X10110Y75609D01*
Y106508D01*
X10231Y106573D01*
X11380Y107050D01*
X12860Y106756D01*
X14526Y107087D01*
X15938Y108031D01*
X16882Y109443D01*
X17213Y111109D01*
Y111225D01*
X17423Y111538D01*
X17739Y111974D01*
X17753Y112032D01*
X17786Y112081D01*
X17891Y112609D01*
X30110D01*
X32110Y110324D01*
D02*
G37*
G36*
X86111Y93822D02*
X86136Y93532D01*
X86178Y93257D01*
X86236Y92997D01*
X86310Y92752D01*
X86402Y92522D01*
X86510Y92307D01*
X86634Y92107D01*
X86775Y91922D01*
X86933Y91752D01*
X82733D01*
X82891Y91922D01*
X83032Y92107D01*
X83156Y92307D01*
X83264Y92522D01*
X83355Y92752D01*
X83430Y92997D01*
X83488Y93257D01*
X83530Y93532D01*
X83554Y93822D01*
X83563Y94127D01*
X86103D01*
X86111Y93822D01*
D02*
G37*
G36*
X126319Y147305D02*
X127114Y146114D01*
X128305Y145318D01*
X129710Y145039D01*
X137510D01*
X138914Y145318D01*
X140105Y146114D01*
X140901Y147305D01*
X140990Y147756D01*
X142539D01*
Y143709D01*
X142818Y142305D01*
X143614Y141114D01*
X144805Y140318D01*
X145610Y140158D01*
Y136109D01*
X154610D01*
Y140158D01*
X155414Y140318D01*
X156340Y140936D01*
X157279Y140618D01*
X157610Y140374D01*
Y27109D01*
X148168D01*
Y38342D01*
X154773Y44946D01*
X155436Y45939D01*
X155668Y47109D01*
X155668Y47109D01*
X155668Y119609D01*
X155435Y120780D01*
X154773Y121772D01*
X154772Y121772D01*
X152273Y124272D01*
X151280Y124935D01*
X150110Y125168D01*
X150110Y125168D01*
X120943D01*
Y145125D01*
X121914Y145318D01*
X123105Y146114D01*
X123901Y147305D01*
X124061Y148109D01*
X126158D01*
X126319Y147305D01*
D02*
G37*
G36*
X152610Y119609D02*
X152610Y47109D01*
X145110Y39609D01*
Y-391D01*
X115110D01*
Y39609D01*
X107610Y47109D01*
X107610Y119609D01*
X110110Y122109D01*
X150110D01*
X152610Y119609D01*
D02*
G37*
G36*
X23819Y147305D02*
X24614Y146114D01*
X25805Y145318D01*
X27210Y145039D01*
X35010D01*
X36414Y145318D01*
X37605Y146114D01*
X38401Y147305D01*
X38490Y147756D01*
X70689D01*
X80479Y137966D01*
Y93893D01*
X79181Y91950D01*
X78715Y89609D01*
X79181Y87268D01*
X80507Y85283D01*
X82492Y83957D01*
X84833Y83492D01*
X87174Y83957D01*
X89158Y85283D01*
X90485Y87268D01*
X90950Y89609D01*
X90485Y91950D01*
X89186Y93893D01*
Y135216D01*
X90360Y135702D01*
X94646Y131416D01*
Y131000D01*
X94651Y130976D01*
Y119540D01*
X93353Y117597D01*
X92887Y115256D01*
X93353Y112914D01*
X94679Y110930D01*
X96664Y109604D01*
X99005Y109138D01*
X101346Y109604D01*
X103281Y110897D01*
X103829Y110788D01*
X104551Y110569D01*
X104551Y47109D01*
X104551Y47109D01*
X104784Y45939D01*
X105447Y44946D01*
X112051Y38342D01*
Y27109D01*
X97610D01*
Y-391D01*
X62610D01*
Y27109D01*
X48168D01*
Y38342D01*
X56377Y46550D01*
X73110D01*
X74280Y46783D01*
X75272Y47446D01*
X75936Y48439D01*
X76168Y49609D01*
X76168Y99609D01*
X75936Y100780D01*
X75272Y101772D01*
X72773Y104272D01*
X72772Y104272D01*
X71780Y104935D01*
X70610Y105168D01*
X70610Y105168D01*
X65110D01*
X65110Y105168D01*
X63939Y104935D01*
X62947Y104272D01*
X60860Y102185D01*
X59273Y103772D01*
X59272Y103772D01*
X58610Y104215D01*
Y118109D01*
X20673D01*
X20180Y118709D01*
Y125509D01*
X19901Y126914D01*
X19105Y128105D01*
X17914Y128900D01*
X17605Y128962D01*
Y130257D01*
X17914Y130318D01*
X19105Y131114D01*
X19901Y132305D01*
X20180Y133709D01*
Y140509D01*
X19901Y141914D01*
X19105Y143105D01*
X18072Y143795D01*
X18044Y144357D01*
X18044Y144358D01*
X18251Y145087D01*
X19414Y145318D01*
X20605Y146114D01*
X21401Y147305D01*
X21561Y148109D01*
X23658D01*
X23819Y147305D01*
D02*
G37*
G36*
X73110Y99609D02*
X73110Y49609D01*
X55110D01*
X45110Y39609D01*
Y-391D01*
X15110D01*
Y39609D01*
X45110Y69609D01*
X55110D01*
X56610Y71109D01*
X58610D01*
Y73109D01*
X62610Y77109D01*
Y99609D01*
X65110Y102109D01*
X70610D01*
X73110Y99609D01*
D02*
G37*
D10*
X12610Y137109D02*
X13360Y137859D01*
Y151359D01*
X14110Y152109D01*
D12*
X12610Y137109D02*
D03*
Y122109D02*
D03*
X150110Y132109D02*
D03*
Y147109D02*
D03*
D13*
X130110Y94609D02*
D03*
X35110D02*
D03*
D14*
X31000Y163500D02*
D03*
X14000D02*
D03*
X14110Y152109D02*
D03*
X31110D02*
D03*
X63500Y163500D02*
D03*
X46500D02*
D03*
X116610Y152109D02*
D03*
X133610D02*
D03*
D19*
X75110Y157109D02*
X99000Y133219D01*
Y131000D02*
Y133219D01*
X99005Y115256D02*
Y130995D01*
X99000Y131000D02*
X99005Y130995D01*
X72492Y152109D02*
X84833Y139769D01*
X31110Y152109D02*
X72492D01*
X84833Y89609D02*
Y139769D01*
X75110Y157109D02*
Y158359D01*
X31110Y164609D02*
X46110D01*
X46610D01*
X43270Y160770D02*
X46000Y163500D01*
X43270Y159270D02*
Y160770D01*
X42500Y158500D02*
X43270Y159270D01*
X133610Y152109D02*
X144610D01*
X149610Y147109D01*
X150110D01*
X12610Y122109D02*
X12860Y121859D01*
Y111109D02*
Y121859D01*
D20*
X78610Y166109D02*
X92610Y152109D01*
X65110Y166109D02*
X78610D01*
X63610Y164609D02*
X65110Y166109D01*
X116610Y108109D02*
Y152109D01*
X92610D02*
X116610D01*
Y108109D02*
X130110Y94609D01*
D21*
X30110Y19609D02*
D03*
X80110D02*
D03*
X130110D02*
D03*
D22*
X154000Y164500D02*
D03*
X150500Y157500D02*
D03*
X154000Y38500D02*
D03*
X147000Y164500D02*
D03*
X140000D02*
D03*
X133000D02*
D03*
X126000D02*
D03*
X119000D02*
D03*
X112000D02*
D03*
X108500Y31500D02*
D03*
X105000Y164500D02*
D03*
X101500Y45500D02*
D03*
X105000Y38500D02*
D03*
X101500Y31500D02*
D03*
X98000Y164500D02*
D03*
Y66500D02*
D03*
Y52500D02*
D03*
X91000Y164500D02*
D03*
X59500Y31500D02*
D03*
X56000Y38500D02*
D03*
X52500Y31500D02*
D03*
X38500Y129500D02*
D03*
X35000Y122500D02*
D03*
X66500Y108500D02*
D03*
X73500D02*
D03*
X63000Y115500D02*
D03*
X70000D02*
D03*
X77000D02*
D03*
X73500Y122500D02*
D03*
X66500D02*
D03*
X59500D02*
D03*
X52500D02*
D03*
X45500D02*
D03*
X49000Y129500D02*
D03*
X56000D02*
D03*
X63000D02*
D03*
X70000D02*
D03*
X77000D02*
D03*
X99005Y115256D02*
D03*
X84833Y89609D02*
D03*
X116000Y107750D02*
D03*
X75110Y158359D02*
D03*
X42500Y158500D02*
D03*
X33860Y83109D02*
D03*
X26860D02*
D03*
X30360Y90109D02*
D03*
X26860Y97109D02*
D03*
X30360Y104109D02*
D03*
X26860Y111109D02*
D03*
X19860D02*
D03*
X12860D02*
D03*
X16360Y104109D02*
D03*
X12860Y97109D02*
D03*
X16360Y90109D02*
D03*
X12860Y83109D02*
D03*
X16360Y76109D02*
D03*
X23360D02*
D03*
X30360D02*
D03*
X37360D02*
D03*
X44360D02*
D03*
X51360D02*
D03*
X54860Y83109D02*
D03*
X67000Y65750D02*
D03*
Y86750D02*
D03*
Y79750D02*
D03*
X63500Y72750D02*
D03*
X60000Y65750D02*
D03*
X63500Y58750D02*
D03*
X32000Y51750D02*
D03*
X28500Y44750D02*
D03*
X56500Y58750D02*
D03*
X53000Y65750D02*
D03*
X49500Y58750D02*
D03*
X46000Y65750D02*
D03*
X42500Y58750D02*
D03*
X46000Y51750D02*
D03*
X42500Y44750D02*
D03*
X39000Y51750D02*
D03*
X35500Y44750D02*
D03*
X140500Y114750D02*
D03*
X133500D02*
D03*
X126500D02*
D03*
X119500D02*
D03*
X112500D02*
D03*
Y100750D02*
D03*
X116000Y93750D02*
D03*
X112500Y86750D02*
D03*
X116000Y79750D02*
D03*
X112500Y72750D02*
D03*
X147500Y114750D02*
D03*
X144000Y107750D02*
D03*
X147500Y100750D02*
D03*
X144000Y93750D02*
D03*
X147500Y86750D02*
D03*
X144000Y79750D02*
D03*
X147500Y72750D02*
D03*
X147500Y58750D02*
D03*
X144000Y65750D02*
D03*
X140500Y58750D02*
D03*
X144000Y51750D02*
D03*
X140500Y44750D02*
D03*
X137000Y65750D02*
D03*
X133500Y58750D02*
D03*
X137000Y51750D02*
D03*
X133500Y44750D02*
D03*
X130000Y65750D02*
D03*
X126500Y58750D02*
D03*
X130000Y51750D02*
D03*
X126500Y44750D02*
D03*
X123000Y65750D02*
D03*
X119500Y58750D02*
D03*
X123000Y51750D02*
D03*
X119500Y44750D02*
D03*
X116000Y65750D02*
D03*
X112500Y58750D02*
D03*
X116000Y51750D02*
D03*
M02*
