G04*
G04 #@! TF.GenerationSoftware,Altium Limited,Altium Designer,20.0.7 (75)*
G04*
G04 Layer_Color=65535*
%FSLAX44Y44*%
%MOMM*%
G71*
G01*
G75*
%ADD10C,0.2000*%
%ADD11C,0.1500*%
%ADD12C,0.2540*%
%ADD13C,0.2032*%
%ADD14C,0.1270*%
%ADD15C,0.1200*%
D10*
X114500Y131000D02*
Y134000D01*
X108500Y131000D02*
Y134000D01*
X127000Y131000D02*
Y134000D01*
X121000Y131000D02*
Y134000D01*
X139500Y131000D02*
Y134000D01*
X133500Y131000D02*
Y134000D01*
X311300Y2300D02*
Y78499D01*
Y2300D02*
X336700D01*
Y78499D01*
X311300D02*
X336700D01*
X311300Y81501D02*
Y157700D01*
Y81501D02*
X336700D01*
Y157700D01*
X311300D02*
X336700D01*
X26700Y51501D02*
Y127700D01*
X1300D02*
X26700D01*
X1300Y51501D02*
Y127700D01*
Y51501D02*
X26700D01*
X43250Y16250D02*
Y18750D01*
X29750Y16250D02*
Y18750D01*
X63250Y16250D02*
Y18750D01*
X49750Y16250D02*
Y18750D01*
X83250Y16250D02*
Y18750D01*
X69750Y16250D02*
Y18750D01*
X103250Y16250D02*
Y18750D01*
X89750Y16250D02*
Y18750D01*
X76499Y148373D02*
X76500Y148750D01*
Y156250D02*
X76501Y156627D01*
X102000Y131000D02*
Y134000D01*
X96000Y131000D02*
Y134000D01*
X184500Y154000D02*
X187500D01*
X184500Y148000D02*
X187500D01*
X143249Y146312D02*
X143251Y146689D01*
X156000Y153750D02*
X156001Y154127D01*
X155999Y145873D02*
X156000Y146250D01*
X13500Y154750D02*
Y148085D01*
X14498Y32500D02*
Y25835D01*
X17831Y29168D02*
X11166D01*
X19497Y22503D02*
Y19171D01*
Y20837D01*
X9500D01*
Y22503D01*
Y19171D01*
Y14173D02*
X16164D01*
Y9174D01*
X14498Y7508D01*
X9500D01*
D11*
X143000Y13000D02*
X193000D01*
X143000D02*
Y133000D01*
X243000D01*
Y13000D02*
Y133000D01*
X193000Y13000D02*
X243000D01*
X138892Y64760D02*
Y95240D01*
X89108Y50000D02*
Y95240D01*
D12*
X322100Y36260D02*
Y142940D01*
X245900Y36260D02*
X322100D01*
X245900D02*
Y142940D01*
X322100D01*
X84600Y36260D02*
Y142940D01*
X8400Y36260D02*
X84600D01*
X8400D02*
Y142940D01*
X84600D01*
D13*
X274750Y2900D02*
Y32100D01*
X261220D02*
X302000D01*
X261220Y2900D02*
X302000D01*
Y4800D01*
Y30200D02*
Y32100D01*
X256000Y6250D02*
X259350Y2900D01*
X261220D01*
X256000Y28750D02*
X259350Y32100D01*
X261220D01*
D14*
X109815Y146520D02*
X108982Y147353D01*
Y149019D01*
X109815Y149852D01*
X110648D01*
X111481Y149019D01*
Y148186D01*
Y149019D01*
X112314Y149852D01*
X113147D01*
X113980Y149019D01*
Y147353D01*
X113147Y146520D01*
X113980Y151518D02*
X113147D01*
Y152351D01*
X113980D01*
Y151518D01*
X109815Y155684D02*
X108982Y156517D01*
Y158183D01*
X109815Y159016D01*
X110648D01*
X111481Y158183D01*
Y157350D01*
Y158183D01*
X112314Y159016D01*
X113147D01*
X113980Y158183D01*
Y156517D01*
X113147Y155684D01*
X120982Y150769D02*
Y146770D01*
X123981D01*
X122981Y148769D01*
Y149769D01*
X123981Y150769D01*
X125980D01*
X126980Y149769D01*
Y147770D01*
X125980Y146770D01*
X120982Y152768D02*
X124981D01*
X126980Y154767D01*
X124981Y156767D01*
X120982D01*
X133482Y151019D02*
X134482Y149019D01*
X136481Y147020D01*
X138480D01*
X139480Y148020D01*
Y150019D01*
X138480Y151019D01*
X137481D01*
X136481Y150019D01*
Y147020D01*
X133482Y153018D02*
X137481D01*
X139480Y155017D01*
X137481Y157017D01*
X133482D01*
D15*
X86751Y122499D02*
Y117501D01*
X87751Y116501D01*
X89750D01*
X90750Y117501D01*
Y122499D01*
X92749Y116501D02*
X94749D01*
X93749D01*
Y122499D01*
X92749Y121499D01*
X201502Y148001D02*
Y153999D01*
X204501D01*
X205501Y152999D01*
Y151000D01*
X204501Y150000D01*
X201502D01*
X203502D02*
X205501Y148001D01*
X207500D02*
X209500D01*
X208500D01*
Y153999D01*
X207500Y152999D01*
X216498Y148001D02*
X212499D01*
X216498Y152000D01*
Y152999D01*
X215498Y153999D01*
X213498D01*
X212499Y152999D01*
X93999Y128752D02*
X88001D01*
Y131751D01*
X89001Y132751D01*
X91000D01*
X92000Y131751D01*
Y128752D01*
Y130752D02*
X93999Y132751D01*
Y134750D02*
Y136750D01*
Y135750D01*
X88001D01*
X89001Y134750D01*
Y139749D02*
X88001Y140749D01*
Y142748D01*
X89001Y143748D01*
X92999D01*
X93999Y142748D01*
Y140749D01*
X92999Y139749D01*
X89001D01*
X246502Y145251D02*
Y151249D01*
X249501D01*
X250500Y150249D01*
Y148250D01*
X249501Y147250D01*
X246502D01*
X256498Y151249D02*
X252500D01*
Y148250D01*
X254499Y149250D01*
X255499D01*
X256498Y148250D01*
Y146251D01*
X255499Y145251D01*
X253499D01*
X252500Y146251D01*
X5999Y134002D02*
X1D01*
Y137001D01*
X1001Y138000D01*
X3000D01*
X4000Y137001D01*
Y134002D01*
X5999Y142999D02*
X1D01*
X3000Y140000D01*
Y143998D01*
X308999Y148002D02*
X303001D01*
Y151001D01*
X304001Y152000D01*
X306000D01*
X307000Y151001D01*
Y148002D01*
X304001Y154000D02*
X303001Y154999D01*
Y156999D01*
X304001Y157998D01*
X305000D01*
X306000Y156999D01*
Y155999D01*
Y156999D01*
X307000Y157998D01*
X307999D01*
X308999Y156999D01*
Y154999D01*
X307999Y154000D01*
X309249Y3752D02*
X303251D01*
Y6751D01*
X304251Y7750D01*
X306250D01*
X307250Y6751D01*
Y3752D01*
X309249Y13748D02*
Y9750D01*
X305250Y13748D01*
X304251D01*
X303251Y12749D01*
Y10749D01*
X304251Y9750D01*
X6249Y41751D02*
X251D01*
Y44750D01*
X1251Y45750D01*
X3250D01*
X4250Y44750D01*
Y41751D01*
X6249Y47749D02*
Y49749D01*
Y48749D01*
X251D01*
X1251Y47749D01*
X145753Y143749D02*
Y137751D01*
X149752D01*
X155750Y143749D02*
X151751D01*
Y137751D01*
X155750D01*
X151751Y140750D02*
X153751D01*
X157749Y143749D02*
Y137751D01*
X160748D01*
X161748Y138751D01*
Y142749D01*
X160748Y143749D01*
X157749D01*
X163747Y137751D02*
X165747D01*
X164747D01*
Y143749D01*
X163747Y142749D01*
X133501Y41999D02*
Y36001D01*
X137500D01*
X139499D02*
X141499D01*
X140499D01*
Y41999D01*
X139499Y40999D01*
X245501Y33749D02*
Y27751D01*
X248500D01*
X249500Y28751D01*
Y32749D01*
X248500Y33749D01*
X245501D01*
X251499Y27751D02*
X253499D01*
X252499D01*
Y33749D01*
X251499Y32749D01*
X53001Y154499D02*
X52002Y155499D01*
X50002D01*
X49002Y154499D01*
Y150501D01*
X50002Y149501D01*
X52002D01*
X53001Y150501D01*
X55001Y149501D02*
X57000D01*
X56000D01*
Y155499D01*
X55001Y154499D01*
X59999D02*
X60999Y155499D01*
X62998D01*
X63998Y154499D01*
Y150501D01*
X62998Y149501D01*
X60999D01*
X59999Y150501D01*
Y154499D01*
X83751Y8750D02*
X82751Y7751D01*
Y5751D01*
X83751Y4752D01*
X87749D01*
X88749Y5751D01*
Y7751D01*
X87749Y8750D01*
X82751Y14748D02*
Y10750D01*
X85750D01*
X84750Y12749D01*
Y13749D01*
X85750Y14748D01*
X87749D01*
X88749Y13749D01*
Y11749D01*
X87749Y10750D01*
X63501Y9000D02*
X62501Y8001D01*
Y6001D01*
X63501Y5002D01*
X67499D01*
X68499Y6001D01*
Y8001D01*
X67499Y9000D01*
X68499Y13999D02*
X62501D01*
X65500Y11000D01*
Y14998D01*
X43751Y8500D02*
X42751Y7501D01*
Y5501D01*
X43751Y4502D01*
X47749D01*
X48749Y5501D01*
Y7501D01*
X47749Y8500D01*
X43751Y10500D02*
X42751Y11499D01*
Y13499D01*
X43751Y14498D01*
X44750D01*
X45750Y13499D01*
Y12499D01*
Y13499D01*
X46750Y14498D01*
X47749D01*
X48749Y13499D01*
Y11499D01*
X47749Y10500D01*
X23001Y8500D02*
X22001Y7501D01*
Y5501D01*
X23001Y4502D01*
X26999D01*
X27999Y5501D01*
Y7501D01*
X26999Y8500D01*
X27999Y14498D02*
Y10500D01*
X24000Y14498D01*
X23001D01*
X22001Y13499D01*
Y11499D01*
X23001Y10500D01*
M02*
