G04*
G04 #@! TF.GenerationSoftware,Altium Limited,Altium Designer,20.0.7 (75)*
G04*
G04 Layer_Color=32896*
%FSLAX44Y44*%
%MOMM*%
G71*
G01*
G75*
%ADD10C,0.2000*%
%ADD14C,0.1270*%
%ADD15C,0.1200*%
D10*
X142500Y122000D02*
X145500D01*
X142500Y128000D02*
X145500D01*
X112500Y122000D02*
X115500D01*
X112500Y128000D02*
X115500D01*
X207250Y88750D02*
Y91250D01*
X220750Y88750D02*
Y91250D01*
X134000Y46250D02*
X134001Y45873D01*
X133999Y54127D02*
X134000Y53750D01*
X102500Y47000D02*
X105500D01*
X102500Y53000D02*
X105500D01*
X142500Y137000D02*
X145500D01*
X142500Y143000D02*
X145500D01*
X142500Y152000D02*
X145500D01*
X142500Y158000D02*
X145500D01*
X112000Y137000D02*
X115000D01*
X112000Y143000D02*
X115000D01*
X112500Y152000D02*
X115500D01*
X112500Y158000D02*
X115500D01*
X187250Y88750D02*
Y91250D01*
X200750Y88750D02*
Y91250D01*
X167250Y88750D02*
Y91250D01*
X180750Y88750D02*
Y91250D01*
X147250Y88750D02*
Y91250D01*
X160750Y88750D02*
Y91250D01*
X257253Y85250D02*
X263918D01*
X267250Y81918D01*
X263918Y78586D01*
X257253D01*
Y70255D02*
Y73587D01*
X258919Y75253D01*
X265584D01*
X267250Y73587D01*
Y70255D01*
X265584Y68589D01*
X258919D01*
X257253Y70255D01*
Y65256D02*
X265584D01*
X267250Y63590D01*
Y60258D01*
X265584Y58592D01*
X257253D01*
Y55260D02*
Y48595D01*
Y51927D01*
X267250D01*
X73997Y52750D02*
X67332D01*
X64000Y56082D01*
X67332Y59415D01*
X73997D01*
Y62747D02*
Y66079D01*
Y64413D01*
X64000D01*
Y62747D01*
Y66079D01*
Y71077D02*
X73997D01*
X64000Y77742D01*
X73997D01*
X259169Y120585D02*
X257503Y122252D01*
Y125584D01*
X259169Y127250D01*
X265834D01*
X267500Y125584D01*
Y122252D01*
X265834Y120585D01*
X262502D01*
Y123918D01*
X267500Y117253D02*
X257503D01*
X267500Y110589D01*
X257503D01*
Y107256D02*
X267500D01*
Y102258D01*
X265834Y100592D01*
X259169D01*
X257503Y102258D01*
Y107256D01*
X72831Y108665D02*
X74497Y106998D01*
Y103666D01*
X72831Y102000D01*
X66166D01*
X64500Y103666D01*
Y106998D01*
X66166Y108665D01*
X69498D01*
Y105332D01*
X64500Y111997D02*
X74497D01*
X64500Y118661D01*
X74497D01*
Y121994D02*
X64500D01*
Y126992D01*
X66166Y128658D01*
X72831D01*
X74497Y126992D01*
Y121994D01*
D14*
X209231Y41764D02*
X213230D01*
Y35766D01*
X209231D01*
X213230Y38765D02*
X211231D01*
X207232Y35766D02*
Y41764D01*
X204233D01*
X203233Y40764D01*
Y38765D01*
X204233Y37765D01*
X207232D01*
X205233D02*
X203233Y35766D01*
X191237D02*
X195236D01*
X191237Y39764D01*
Y40764D01*
X192237Y41764D01*
X194236D01*
X195236Y40764D01*
X189238D02*
X188238Y41764D01*
X186239D01*
X185239Y40764D01*
Y36765D01*
X186239Y35766D01*
X188238D01*
X189238Y36765D01*
Y40764D01*
X179241Y35766D02*
X183240D01*
X179241Y39764D01*
Y40764D01*
X180241Y41764D01*
X182240D01*
X183240Y40764D01*
X173243Y35766D02*
X177242D01*
X173243Y39764D01*
Y40764D01*
X174243Y41764D01*
X176242D01*
X177242Y40764D01*
X213230Y31518D02*
Y25520D01*
X210231D01*
X209231Y26520D01*
Y30518D01*
X210231Y31518D01*
X213230D01*
X203233Y30518D02*
X204233Y31518D01*
X206232D01*
X207232Y30518D01*
Y26520D01*
X206232Y25520D01*
X204233D01*
X203233Y26520D01*
X201234Y31518D02*
Y25520D01*
X198235D01*
X197235Y26520D01*
Y30518D01*
X198235Y31518D01*
X201234D01*
X191237Y30518D02*
X192237Y31518D01*
X194236D01*
X195236Y30518D01*
Y26520D01*
X194236Y25520D01*
X192237D01*
X191237Y26520D01*
X180241Y25520D02*
Y31518D01*
X183240Y28519D01*
X179241D01*
X177242Y25520D02*
Y29519D01*
X175242Y31518D01*
X173243Y29519D01*
Y25520D01*
Y28519D01*
X177242D01*
X98242Y13768D02*
X96243D01*
X97243D01*
Y7770D01*
X98242D01*
X96243D01*
X93244D02*
Y11769D01*
X92244D01*
X91245Y10769D01*
Y7770D01*
Y10769D01*
X90245Y11769D01*
X89245Y10769D01*
Y7770D01*
X86246Y11769D02*
X84247D01*
X83247Y10769D01*
Y7770D01*
X86246D01*
X87246Y8770D01*
X86246Y9769D01*
X83247D01*
X81248Y11769D02*
X77249Y7770D01*
X79249Y9769D01*
X77249Y11769D01*
X81248Y7770D01*
X69252Y11769D02*
X68252D01*
Y10769D01*
X69252D01*
Y11769D01*
Y8770D02*
X68252D01*
Y7770D01*
X69252D01*
Y8770D01*
X55256Y7770D02*
Y13768D01*
X58255Y10769D01*
X54257D01*
X52257Y7770D02*
Y11769D01*
X50258Y13768D01*
X48259Y11769D01*
Y7770D01*
Y10769D01*
X52257D01*
X98242Y22643D02*
Y18644D01*
X96243Y16645D01*
X94244Y18644D01*
Y22643D01*
X91245Y16645D02*
X89245D01*
X88246Y17645D01*
Y19644D01*
X89245Y20644D01*
X91245D01*
X92244Y19644D01*
Y17645D01*
X91245Y16645D01*
X86246Y20644D02*
Y17645D01*
X85247Y16645D01*
X82248D01*
Y20644D01*
X79249Y21643D02*
Y20644D01*
X80248D01*
X78249D01*
X79249D01*
Y17645D01*
X78249Y16645D01*
X69252Y20644D02*
X68252D01*
Y19644D01*
X69252D01*
Y20644D01*
Y17645D02*
X68252D01*
Y16645D01*
X69252D01*
Y17645D01*
X58255Y21643D02*
X57256Y22643D01*
X55256D01*
X54257Y21643D01*
Y20644D01*
X55256Y19644D01*
X56256D01*
X55256D01*
X54257Y18644D01*
Y17645D01*
X55256Y16645D01*
X57256D01*
X58255Y17645D01*
X52257Y16645D02*
Y17645D01*
X51258D01*
Y16645D01*
X52257D01*
X47259Y21643D02*
X46259Y22643D01*
X44260D01*
X43260Y21643D01*
Y20644D01*
X44260Y19644D01*
X45260D01*
X44260D01*
X43260Y18644D01*
Y17645D01*
X44260Y16645D01*
X46259D01*
X47259Y17645D01*
X41261Y16645D02*
X37262Y20644D01*
X31264Y22643D02*
X35263D01*
Y19644D01*
X33263Y20644D01*
X32264D01*
X31264Y19644D01*
Y17645D01*
X32264Y16645D01*
X34263D01*
X35263Y17645D01*
X29265Y16645D02*
X25266Y20644D01*
X19268Y22643D02*
X21267Y21643D01*
X23267Y19644D01*
Y17645D01*
X22267Y16645D01*
X20268D01*
X19268Y17645D01*
Y18644D01*
X20268Y19644D01*
X23267D01*
X17269Y22643D02*
Y18644D01*
X15269Y16645D01*
X13270Y18644D01*
Y22643D01*
X98242Y31518D02*
Y27519D01*
X96243Y25520D01*
X94244Y27519D01*
Y31518D01*
X92244Y25520D02*
X90245D01*
X91245D01*
Y29519D01*
X92244D01*
X87246Y25520D02*
Y29519D01*
X84247D01*
X83247Y28519D01*
Y25520D01*
X75250Y29519D02*
X74250D01*
Y28519D01*
X75250D01*
Y29519D01*
Y26520D02*
X74250D01*
Y25520D01*
X75250D01*
Y26520D01*
X60255Y31518D02*
X62254Y30518D01*
X64254Y28519D01*
Y26520D01*
X63254Y25520D01*
X61254D01*
X60255Y26520D01*
Y27519D01*
X61254Y28519D01*
X64254D01*
X58255Y25520D02*
Y26520D01*
X57256D01*
Y25520D01*
X58255D01*
X49258Y31518D02*
X53257D01*
Y28519D01*
X51258Y29519D01*
X50258D01*
X49258Y28519D01*
Y26520D01*
X50258Y25520D01*
X52257D01*
X53257Y26520D01*
X41261Y28519D02*
X37262D01*
X29265Y30518D02*
X28265Y31518D01*
X26266D01*
X25266Y30518D01*
Y29519D01*
X26266Y28519D01*
X27266D01*
X26266D01*
X25266Y27519D01*
Y26520D01*
X26266Y25520D01*
X28265D01*
X29265Y26520D01*
X23267Y25520D02*
X21267D01*
X22267D01*
Y31518D01*
X23267Y30518D01*
X18268Y31518D02*
Y27519D01*
X16269Y25520D01*
X14270Y27519D01*
Y31518D01*
X304482Y146268D02*
X303482Y147268D01*
Y149267D01*
X304482Y150267D01*
X305481D01*
X306481Y149267D01*
Y147268D01*
X307481Y146268D01*
X308480D01*
X309480Y147268D01*
Y149267D01*
X308480Y150267D01*
X309480Y140270D02*
Y144269D01*
X305481Y140270D01*
X304482D01*
X303482Y141270D01*
Y143269D01*
X304482Y144269D01*
X307481Y117270D02*
Y121269D01*
X305481Y119269D02*
X309480D01*
X308980Y91270D02*
Y95269D01*
X308230Y12770D02*
Y16769D01*
X304482Y66269D02*
X303482Y67268D01*
Y69268D01*
X304482Y70267D01*
X305481D01*
X306481Y69268D01*
Y67268D01*
X307481Y66269D01*
X308480D01*
X309480Y67268D01*
Y69268D01*
X308480Y70267D01*
X309480Y64269D02*
Y62270D01*
Y63270D01*
X303482D01*
X304482Y64269D01*
X308481Y38020D02*
Y42019D01*
X306481Y40019D02*
X310480D01*
X298982Y135731D02*
X297982Y136731D01*
Y138730D01*
X298982Y139730D01*
X299981D01*
X300981Y138730D01*
Y136731D01*
X301981Y135731D01*
X302980D01*
X303980Y136731D01*
Y138730D01*
X302980Y139730D01*
X303980Y130733D02*
Y132732D01*
X302980Y133732D01*
X300981D01*
X299981Y132732D01*
Y130733D01*
X300981Y129733D01*
X301981D01*
Y133732D01*
X299981Y127734D02*
X303980D01*
X301981D01*
X300981Y126734D01*
X299981Y125735D01*
Y124735D01*
Y121736D02*
X303980Y119736D01*
X299981Y117737D01*
X303980Y114738D02*
Y112739D01*
X302980Y111739D01*
X300981D01*
X299981Y112739D01*
Y114738D01*
X300981Y115738D01*
X302980D01*
X303980Y114738D01*
Y99743D02*
Y103742D01*
X299981Y99743D01*
X298982D01*
X297982Y100743D01*
Y102742D01*
X298982Y103742D01*
X300232Y57731D02*
X299232Y58731D01*
Y60730D01*
X300232Y61730D01*
X301231D01*
X302231Y60730D01*
Y58731D01*
X303231Y57731D01*
X304230D01*
X305230Y58731D01*
Y60730D01*
X304230Y61730D01*
X305230Y52733D02*
Y54732D01*
X304230Y55732D01*
X302231D01*
X301231Y54732D01*
Y52733D01*
X302231Y51733D01*
X303231D01*
Y55732D01*
X301231Y49734D02*
X305230D01*
X303231D01*
X302231Y48734D01*
X301231Y47734D01*
Y46735D01*
Y43736D02*
X305230Y41736D01*
X301231Y39737D01*
X305230Y36738D02*
Y34739D01*
X304230Y33739D01*
X302231D01*
X301231Y34739D01*
Y36738D01*
X302231Y37738D01*
X304230D01*
X305230Y36738D01*
Y25742D02*
Y23742D01*
Y24742D01*
X299232D01*
X300232Y25742D01*
D15*
X109748Y57501D02*
Y63499D01*
X106749D01*
X105749Y62499D01*
Y60500D01*
X106749Y59500D01*
X109748D01*
X107748D02*
X105749Y57501D01*
X103750D02*
X101750D01*
X102750D01*
Y63499D01*
X103750Y62499D01*
X98751Y57501D02*
X96752D01*
X97752D01*
Y63499D01*
X98751Y62499D01*
X109748Y144251D02*
Y150249D01*
X106749D01*
X105750Y149249D01*
Y147250D01*
X106749Y146250D01*
X109748D01*
X107749D02*
X105750Y144251D01*
X103750Y145251D02*
X102751Y144251D01*
X100751D01*
X99752Y145251D01*
Y149249D01*
X100751Y150249D01*
X102751D01*
X103750Y149249D01*
Y148250D01*
X102751Y147250D01*
X99752D01*
X108748Y130251D02*
Y136249D01*
X105749D01*
X104750Y135249D01*
Y133250D01*
X105749Y132250D01*
X108748D01*
X106749D02*
X104750Y130251D01*
X102750Y135249D02*
X101751Y136249D01*
X99751D01*
X98752Y135249D01*
Y134250D01*
X99751Y133250D01*
X98752Y132250D01*
Y131251D01*
X99751Y130251D01*
X101751D01*
X102750Y131251D01*
Y132250D01*
X101751Y133250D01*
X102750Y134250D01*
Y135249D01*
X101751Y133250D02*
X99751D01*
X109248Y114501D02*
Y120499D01*
X106249D01*
X105250Y119499D01*
Y117500D01*
X106249Y116500D01*
X109248D01*
X107249D02*
X105250Y114501D01*
X103250Y120499D02*
X99252D01*
Y119499D01*
X103250Y115501D01*
Y114501D01*
X170748Y151501D02*
Y157499D01*
X167749D01*
X166750Y156499D01*
Y154500D01*
X167749Y153500D01*
X170748D01*
X168749D02*
X166750Y151501D01*
X164750Y156499D02*
X163751Y157499D01*
X161751D01*
X160752Y156499D01*
Y155500D01*
X161751Y154500D01*
X162751D01*
X161751D01*
X160752Y153500D01*
Y152501D01*
X161751Y151501D01*
X163751D01*
X164750Y152501D01*
X170748Y136751D02*
Y142749D01*
X167749D01*
X166750Y141749D01*
Y139750D01*
X167749Y138750D01*
X170748D01*
X168749D02*
X166750Y136751D01*
X160752D02*
X164750D01*
X160752Y140750D01*
Y141749D01*
X161751Y142749D01*
X163751D01*
X164750Y141749D01*
X168999Y122501D02*
Y128499D01*
X166000D01*
X165000Y127499D01*
Y125500D01*
X166000Y124500D01*
X168999D01*
X166999D02*
X165000Y122501D01*
X163001D02*
X161001D01*
X162001D01*
Y128499D01*
X163001Y127499D01*
X214750Y72249D02*
X215749Y73249D01*
X217749D01*
X218748Y72249D01*
Y68251D01*
X217749Y67251D01*
X215749D01*
X214750Y68251D01*
X212750D02*
X211751Y67251D01*
X209751D01*
X208752Y68251D01*
Y72249D01*
X209751Y73249D01*
X211751D01*
X212750Y72249D01*
Y71250D01*
X211751Y70250D01*
X208752D01*
X192750Y68251D02*
X191751Y67251D01*
X189751D01*
X188752Y68251D01*
Y72249D01*
X189751Y73249D01*
X191751D01*
X192750Y72249D01*
X194750Y68251D02*
X195749Y67251D01*
X197749D01*
X198748Y68251D01*
Y69250D01*
X197749Y70250D01*
X198748Y71250D01*
Y72249D01*
X197749Y73249D01*
X195749D01*
X194750Y72249D01*
Y71250D01*
X195749Y70250D01*
X194750Y69250D01*
Y68251D01*
X195749Y70250D02*
X197749D01*
X174000Y68751D02*
X173001Y67751D01*
X171001D01*
X170002Y68751D01*
Y72749D01*
X171001Y73749D01*
X173001D01*
X174000Y72749D01*
X176000Y67751D02*
X179998D01*
Y68751D01*
X176000Y72749D01*
Y73749D01*
X152750Y69501D02*
X151751Y68501D01*
X149751D01*
X148752Y69501D01*
Y73499D01*
X149751Y74499D01*
X151751D01*
X152750Y73499D01*
X158748Y68501D02*
X156749Y69501D01*
X154750Y71500D01*
Y73499D01*
X155749Y74499D01*
X157749D01*
X158748Y73499D01*
Y72500D01*
X157749Y71500D01*
X154750D01*
X133750Y62499D02*
X134750Y63499D01*
X136749D01*
X137749Y62499D01*
Y58501D01*
X136749Y57501D01*
X134750D01*
X133750Y58501D01*
X131751Y57501D02*
X129751D01*
X130751D01*
Y63499D01*
X131751Y62499D01*
M02*
