M48
;Layer_Color=9474304
;FILE_FORMAT=4:4
METRIC,LZ
;TYPE=PLATED
T1F00S00C0.3500
T2F00S00C0.4000
T3F00S00C1.0000
T4F00S00C1.5000
%
T01
X0027989Y0002414
X0026789Y00052141
X00264391Y00059141
Y00073141
X0026789Y00080141
X0027989Y0014414
X0029989
X0030989Y0012414
X0024989
X0023989Y00108141
X0023289
X0022589
X0022939Y00115141
X0022239
X0021889Y00122141
X0022589
X0022939Y00101141
X0023639
X0024339
X0023989Y00094141
X0024689
X0025389
X0025739Y00087141
X0025039
X0024339
X0023639
X0022939
X0022589Y00094141
X0023289
X0023989Y00080141
X0024689
X0025389
X00260891
X0025739Y00073141
X0025039
X0024339
X0025389Y00066141
X00260891
X0025739Y00059141
X0024989Y0004414
X0023639Y00031141
X0022939
X0022239
X0021889Y00038141
X0022589
Y00024141
X0023289
X0023989
X0023639Y00017141
X0022939
X0022239
X0021889Y00024141
Y00010141
X0022589
X0023289
X0023989
X0021989Y0006414
X0019989
X0017989
X00159889
X00139889
X0013839Y00031141
X0014539
X0015239
X0015939
X0016639
X0016289Y00038141
Y00024141
X0015589
X0014889
X0014189
X0013489
X0012789
X0012089
X0012439Y00031141
X0013139
Y00017141
X0013839
X0014539
X0015239
X0015939
X0016639
X0016289Y00010141
X0015589
X0014889
X0014189
X0013489
X0012789
X0012089
X0012439Y00017141
X0012089Y00038141
X00089889Y0008414
X00059889Y0014414
X0003989
X0001989
X0000989Y0000414
X0025989Y0010414
Y0014414
X0023989
T02
X00109Y00007
X00088Y00061
X00091Y00139
X00094Y00152
X001165Y0015073
X0012125Y001355
X00144Y00133
T03
X00324Y00015
Y000404
X00324Y00065799
X00324Y00094201
Y00119601
X00324Y00145
X00014Y00115
Y000896
X00014Y00064201
T04
X00284Y000642
Y00115
X000465
Y000642
M30
