G04*
G04 #@! TF.GenerationSoftware,Altium Limited,Altium Designer,20.0.7 (75)*
G04*
G04 Layer_Physical_Order=2*
G04 Layer_Color=16711680*
%FSLAX44Y44*%
%MOMM*%
G71*
G01*
G75*
%ADD11C,0.1500*%
%ADD12C,0.2540*%
G04:AMPARAMS|DCode=19|XSize=0.95mm|YSize=1.4mm|CornerRadius=0.0712mm|HoleSize=0mm|Usage=FLASHONLY|Rotation=90.000|XOffset=0mm|YOffset=0mm|HoleType=Round|Shape=RoundedRectangle|*
%AMROUNDEDRECTD19*
21,1,0.9500,1.2575,0,0,90.0*
21,1,0.8075,1.4000,0,0,90.0*
1,1,0.1425,0.6288,0.4037*
1,1,0.1425,0.6288,-0.4037*
1,1,0.1425,-0.6288,-0.4037*
1,1,0.1425,-0.6288,0.4037*
%
%ADD19ROUNDEDRECTD19*%
G04:AMPARAMS|DCode=22|XSize=0.8mm|YSize=0.9mm|CornerRadius=0.06mm|HoleSize=0mm|Usage=FLASHONLY|Rotation=180.000|XOffset=0mm|YOffset=0mm|HoleType=Round|Shape=RoundedRectangle|*
%AMROUNDEDRECTD22*
21,1,0.8000,0.7800,0,0,180.0*
21,1,0.6800,0.9000,0,0,180.0*
1,1,0.1200,-0.3400,0.3900*
1,1,0.1200,0.3400,0.3900*
1,1,0.1200,0.3400,-0.3900*
1,1,0.1200,-0.3400,-0.3900*
%
%ADD22ROUNDEDRECTD22*%
G04:AMPARAMS|DCode=23|XSize=0.9mm|YSize=0.8mm|CornerRadius=0.06mm|HoleSize=0mm|Usage=FLASHONLY|Rotation=0.000|XOffset=0mm|YOffset=0mm|HoleType=Round|Shape=RoundedRectangle|*
%AMROUNDEDRECTD23*
21,1,0.9000,0.6800,0,0,0.0*
21,1,0.7800,0.8000,0,0,0.0*
1,1,0.1200,0.3900,-0.3400*
1,1,0.1200,-0.3900,-0.3400*
1,1,0.1200,-0.3900,0.3400*
1,1,0.1200,0.3900,0.3400*
%
%ADD23ROUNDEDRECTD23*%
%ADD37C,1.0000*%
%ADD39C,3.0000*%
%ADD40R,3.0000X3.0000*%
%ADD41C,1.5000*%
%ADD42R,1.5000X1.5000*%
%ADD43C,0.6000*%
%ADD44C,0.2500*%
G36*
X339000Y0D02*
X-1000D01*
Y160000D01*
X99506D01*
X99711Y159750D01*
Y154739D01*
X98441Y154354D01*
X97605Y155605D01*
X95951Y156710D01*
X94000Y157098D01*
X92049Y156710D01*
X90395Y155605D01*
X89290Y153951D01*
X88902Y152000D01*
X88938Y151820D01*
X88923Y151776D01*
X88894Y151707D01*
X88849Y151623D01*
X88786Y151524D01*
X88721Y151436D01*
X67642Y130358D01*
X66920Y129276D01*
X66666Y128000D01*
Y105257D01*
X54343Y92934D01*
X25636D01*
X25326Y93000D01*
X24945Y93128D01*
X24501Y93329D01*
X23999Y93609D01*
X23446Y93973D01*
X22866Y94407D01*
X21511Y95590D01*
X20968Y96124D01*
X20775Y96375D01*
X18791Y97898D01*
X16480Y98855D01*
X14000Y99182D01*
X11520Y98855D01*
X9209Y97898D01*
X7225Y96375D01*
X5702Y94391D01*
X4744Y92080D01*
X4418Y89600D01*
X4744Y87120D01*
X5702Y84809D01*
X7225Y82824D01*
X9209Y81302D01*
X11520Y80344D01*
X14000Y80018D01*
X16480Y80344D01*
X18791Y81302D01*
X20775Y82824D01*
X20968Y83076D01*
X21511Y83610D01*
X22866Y84793D01*
X23446Y85227D01*
X23999Y85591D01*
X24501Y85871D01*
X24945Y86072D01*
X25326Y86200D01*
X25636Y86266D01*
X55724D01*
X56675Y85160D01*
X56627Y85020D01*
X45155Y81433D01*
X43312Y80968D01*
X43167Y80954D01*
X42737Y80823D01*
X42400Y80738D01*
X42394Y80736D01*
X42388Y80736D01*
X42288Y80687D01*
X39963Y79982D01*
X37010Y78403D01*
X34421Y76279D01*
X32297Y73690D01*
X30718Y70737D01*
X29746Y67533D01*
X29418Y64200D01*
X29746Y60867D01*
X30718Y57663D01*
X32297Y54710D01*
X34421Y52121D01*
X37010Y49997D01*
X39963Y48418D01*
X43167Y47446D01*
X46500Y47118D01*
X49833Y47446D01*
X53037Y48418D01*
X55990Y49997D01*
X58579Y52121D01*
X60703Y54710D01*
X62282Y57663D01*
X63254Y60867D01*
X63582Y64200D01*
X63254Y67533D01*
X62971Y68466D01*
X62965Y68583D01*
X62445Y70686D01*
X62064Y72584D01*
X61812Y74311D01*
X61686Y75863D01*
X61679Y77233D01*
X61785Y78416D01*
X61989Y79406D01*
X62273Y80209D01*
X62619Y80838D01*
X62923Y81208D01*
X79358Y97642D01*
X80080Y98724D01*
X80334Y100000D01*
Y123619D01*
X90436Y133721D01*
X90524Y133786D01*
X90624Y133849D01*
X90707Y133894D01*
X90776Y133924D01*
X90820Y133938D01*
X91000Y133902D01*
X92951Y134290D01*
X94605Y135395D01*
X95710Y137049D01*
X96098Y139000D01*
X95710Y140951D01*
X94605Y142605D01*
X92951Y143710D01*
X92342Y143831D01*
X91924Y145209D01*
X93436Y146721D01*
X93524Y146786D01*
X93624Y146849D01*
X93707Y146894D01*
X93776Y146924D01*
X93820Y146938D01*
X94000Y146902D01*
X95951Y147290D01*
X97605Y148395D01*
X98441Y149646D01*
X99711Y149261D01*
Y119750D01*
X99866Y118970D01*
X100308Y118308D01*
X100970Y117866D01*
X101750Y117711D01*
X149186D01*
Y110345D01*
X145768Y107587D01*
X145697Y107503D01*
X145606Y107442D01*
X145444Y107200D01*
X145258Y106976D01*
X145225Y106872D01*
X145164Y106780D01*
X145107Y106495D01*
X145021Y106217D01*
X145030Y106108D01*
X145009Y106000D01*
Y103600D01*
X144947Y103287D01*
Y95212D01*
X145009Y94900D01*
Y94500D01*
X145164Y93720D01*
X145606Y93058D01*
X146268Y92616D01*
X147000Y92470D01*
Y85500D01*
X161000D01*
Y92461D01*
X167000Y92461D01*
Y85500D01*
X181000D01*
Y92461D01*
X187000D01*
Y85500D01*
X201000D01*
Y92461D01*
X207000D01*
Y85500D01*
X221000D01*
Y85500D01*
X222143Y85973D01*
X265558Y42558D01*
X266220Y42116D01*
X267000Y41961D01*
X297054Y41961D01*
X302651Y36364D01*
X304113Y35242D01*
X305816Y34537D01*
X307643Y34296D01*
X314787D01*
X316450Y34204D01*
X316774Y34165D01*
X316815Y34158D01*
X317225Y33624D01*
X319209Y32102D01*
X321520Y31144D01*
X324000Y30818D01*
X326480Y31144D01*
X328791Y32102D01*
X330775Y33624D01*
X332298Y35609D01*
X333255Y37920D01*
X333582Y40400D01*
X333255Y42880D01*
X332298Y45191D01*
X330775Y47175D01*
X328791Y48698D01*
X326480Y49655D01*
X324000Y49982D01*
X321520Y49655D01*
X319209Y48698D01*
X318843Y48417D01*
X310568D01*
X305244Y53741D01*
X304759Y54264D01*
X304014Y55209D01*
X303539Y55922D01*
X303539Y73389D01*
X303769Y73738D01*
X304509Y74683D01*
X305006Y75221D01*
X310992Y81208D01*
X312115Y82670D01*
X312820Y84373D01*
X313060Y86200D01*
Y98676D01*
X323013Y108628D01*
X324237Y109797D01*
X324586Y110096D01*
X326480Y110345D01*
X328791Y111303D01*
X330776Y112825D01*
X332299Y114810D01*
X333256Y117121D01*
X333582Y119601D01*
X333256Y122081D01*
X332299Y124392D01*
X330776Y126376D01*
X328791Y127899D01*
X326480Y128856D01*
X324000Y129183D01*
X321520Y128856D01*
X319209Y127899D01*
X317225Y126376D01*
X315702Y124392D01*
X314745Y122081D01*
X314520Y120373D01*
X312119Y117704D01*
X301008Y106593D01*
X299886Y105131D01*
X299180Y103428D01*
X298940Y101600D01*
Y89124D01*
X296854Y87039D01*
X269345Y87039D01*
X221039Y135345D01*
X221039Y142000D01*
X220884Y142780D01*
X220442Y143442D01*
X220442Y143442D01*
X217942Y145942D01*
X217280Y146384D01*
X216500Y146539D01*
X171500Y146539D01*
X171500Y146539D01*
X170720Y146384D01*
X170058Y145942D01*
X167558Y143442D01*
X167116Y142780D01*
X166961Y142000D01*
X166961Y124688D01*
X162935Y121439D01*
X161789Y121987D01*
Y159750D01*
X161994Y160000D01*
X339000D01*
Y0D01*
D02*
G37*
G36*
X93970Y149000D02*
X93738Y148991D01*
X93507Y148960D01*
X93278Y148907D01*
X93049Y148831D01*
X92822Y148733D01*
X92596Y148612D01*
X92371Y148470D01*
X92148Y148305D01*
X91925Y148117D01*
X91703Y147907D01*
X89907Y149703D01*
X90117Y149925D01*
X90304Y150147D01*
X90470Y150371D01*
X90612Y150596D01*
X90733Y150822D01*
X90831Y151049D01*
X90907Y151278D01*
X90960Y151507D01*
X90991Y151738D01*
X91000Y151970D01*
X93970Y149000D01*
D02*
G37*
G36*
X90970Y136000D02*
X90738Y135991D01*
X90507Y135960D01*
X90278Y135907D01*
X90049Y135831D01*
X89822Y135733D01*
X89596Y135612D01*
X89371Y135470D01*
X89148Y135304D01*
X88925Y135117D01*
X88703Y134907D01*
X86907Y136703D01*
X87117Y136925D01*
X87304Y137148D01*
X87470Y137371D01*
X87612Y137596D01*
X87733Y137822D01*
X87831Y138049D01*
X87907Y138278D01*
X87960Y138507D01*
X87991Y138738D01*
X88000Y138970D01*
X90970Y136000D01*
D02*
G37*
G36*
X323925Y112101D02*
X323827Y112070D01*
X323672Y111975D01*
X323461Y111817D01*
X322869Y111310D01*
X321008Y109534D01*
X320401Y108930D01*
X313330Y116002D01*
X316501Y119526D01*
X323925Y112101D01*
D02*
G37*
G36*
X20124Y94094D02*
X21583Y92820D01*
X22274Y92303D01*
X22941Y91865D01*
X23582Y91507D01*
X24197Y91228D01*
X24787Y91029D01*
X25352Y90910D01*
X25892Y90870D01*
Y88330D01*
X25352Y88290D01*
X24787Y88171D01*
X24197Y87972D01*
X23582Y87693D01*
X22941Y87335D01*
X22274Y86897D01*
X21583Y86380D01*
X20124Y85106D01*
X19356Y84350D01*
Y94850D01*
X20124Y94094D01*
D02*
G37*
G36*
X61573Y82777D02*
X60924Y81987D01*
X60406Y81046D01*
X60019Y79955D01*
X59764Y78713D01*
X59640Y77319D01*
X59647Y75776D01*
X59785Y74081D01*
X60054Y72236D01*
X60455Y70240D01*
X60986Y68093D01*
X42898Y78761D01*
X45709Y79469D01*
X58108Y83347D01*
X58840Y83747D01*
X59311Y84108D01*
X61573Y82777D01*
D02*
G37*
G36*
X216500Y144500D02*
X219000Y142000D01*
X219000Y134500D01*
X268500Y85000D01*
X298000Y85000D01*
X301500Y81500D01*
Y79428D01*
X303899Y77028D01*
X302955Y76006D01*
X302111Y74929D01*
X301500Y73998D01*
X301500Y55338D01*
X301610Y55139D01*
X302362Y54011D01*
X303208Y52938D01*
X304149Y51922D01*
X301500Y49052D01*
Y46500D01*
X299000Y44000D01*
X267000Y44000D01*
X221000Y90000D01*
Y94500D01*
X207000D01*
Y94500D01*
X201000D01*
Y94500D01*
X187000D01*
Y94500D01*
X181000D01*
Y94500D01*
X167000D01*
Y94500D01*
X161000Y94500D01*
Y94500D01*
X147048D01*
Y106000D01*
X169000Y123713D01*
X169000Y142000D01*
X171500Y144500D01*
X216500Y144500D01*
D02*
G37*
G36*
X319357Y46290D02*
X318018Y35876D01*
X317904Y35967D01*
X317708Y36049D01*
X317430Y36121D01*
X317070Y36184D01*
X316628Y36237D01*
X314807Y36337D01*
X313183Y36357D01*
X314943Y46357D01*
X319357Y46290D01*
D02*
G37*
%LPC*%
G36*
X324000Y154582D02*
X321520Y154255D01*
X319209Y153298D01*
X317225Y151775D01*
X315702Y149791D01*
X314744Y147480D01*
X314418Y145000D01*
X314744Y142520D01*
X315702Y140209D01*
X317225Y138224D01*
X319209Y136702D01*
X321520Y135744D01*
X324000Y135418D01*
X326480Y135744D01*
X328791Y136702D01*
X330775Y138224D01*
X332298Y140209D01*
X333255Y142520D01*
X333582Y145000D01*
X333255Y147480D01*
X332298Y149791D01*
X330775Y151775D01*
X328791Y153298D01*
X326480Y154255D01*
X324000Y154582D01*
D02*
G37*
G36*
X324000Y75381D02*
X321520Y75055D01*
X319209Y74097D01*
X317224Y72575D01*
X315701Y70590D01*
X314744Y68279D01*
X314418Y65799D01*
X314744Y63319D01*
X315701Y61008D01*
X317224Y59024D01*
X319209Y57501D01*
X321520Y56544D01*
X324000Y56217D01*
X326480Y56544D01*
X328791Y57501D01*
X330775Y59024D01*
X332298Y61008D01*
X333255Y63319D01*
X333582Y65799D01*
X333255Y68279D01*
X332298Y70590D01*
X330775Y72575D01*
X328791Y74097D01*
X326480Y75055D01*
X324000Y75381D01*
D02*
G37*
G36*
X14000Y73783D02*
X11520Y73456D01*
X9209Y72499D01*
X7225Y70976D01*
X5702Y68992D01*
X4745Y66681D01*
X4418Y64201D01*
X4745Y61721D01*
X5702Y59410D01*
X7225Y57425D01*
X7476Y57233D01*
X8011Y56690D01*
X9193Y55335D01*
X9628Y54755D01*
X9991Y54201D01*
X10271Y53700D01*
X10472Y53256D01*
X10601Y52875D01*
X10666Y52565D01*
Y22000D01*
X10920Y20724D01*
X11643Y19642D01*
X26642Y4642D01*
X27724Y3920D01*
X29000Y3666D01*
X104869D01*
X104977Y3650D01*
X105091Y3624D01*
X105182Y3596D01*
X105252Y3569D01*
X105293Y3548D01*
X105395Y3395D01*
X107049Y2290D01*
X109000Y1902D01*
X110951Y2290D01*
X112605Y3395D01*
X113710Y5049D01*
X113969Y6351D01*
X115338Y6778D01*
X118558Y3558D01*
X118558Y3558D01*
X119220Y3116D01*
X119220Y3116D01*
X119647Y3031D01*
X120000Y2961D01*
X215000Y2961D01*
X215000Y2961D01*
X271000Y2961D01*
X271000Y2961D01*
X271780Y3116D01*
X272442Y3558D01*
X272442Y3558D01*
X274442Y5558D01*
X274884Y6220D01*
X275039Y7000D01*
X275039Y26000D01*
X275039Y26000D01*
X274884Y26780D01*
X274442Y27442D01*
X274442Y27442D01*
X273442Y28442D01*
X272780Y28884D01*
X272000Y29039D01*
X246845D01*
X227442Y48442D01*
X226780Y48884D01*
X226000Y49039D01*
X165000D01*
X164220Y48884D01*
X163558Y48442D01*
X156155Y41039D01*
X144834D01*
Y43449D01*
X144900D01*
X145914Y43651D01*
X146775Y44226D01*
X147349Y45086D01*
X147551Y46100D01*
Y53900D01*
X147349Y54914D01*
X146775Y55774D01*
X145914Y56349D01*
X144900Y56551D01*
X138100D01*
X137086Y56349D01*
X136226Y55774D01*
X135651Y54914D01*
X135568Y54500D01*
X132432D01*
X132349Y54914D01*
X131775Y55774D01*
X130914Y56349D01*
X129900Y56551D01*
X123100D01*
X122086Y56349D01*
X121226Y55774D01*
X120651Y54914D01*
X120449Y53900D01*
Y53334D01*
X119051D01*
Y53400D01*
X118849Y54415D01*
X118274Y55275D01*
X117415Y55849D01*
X116400Y56051D01*
X108600D01*
X107585Y55849D01*
X106726Y55275D01*
X106151Y54415D01*
X106068Y54000D01*
X101932D01*
X101849Y54415D01*
X101274Y55275D01*
X100414Y55849D01*
X99400Y56051D01*
X93799D01*
X93693Y56125D01*
X93007Y56708D01*
X92026Y57689D01*
X92034Y57750D01*
X92056Y57864D01*
X92083Y57972D01*
X92109Y58052D01*
X92129Y58102D01*
X92141Y58124D01*
X92193Y58207D01*
X92252Y58364D01*
X92710Y59049D01*
X93098Y61000D01*
X92710Y62951D01*
X91605Y64605D01*
X89951Y65710D01*
X88000Y66098D01*
X86049Y65710D01*
X84395Y64605D01*
X83290Y62951D01*
X82902Y61000D01*
X83290Y59049D01*
X84395Y57395D01*
X85268Y56812D01*
X85312Y56768D01*
X85317Y56748D01*
X85328Y56685D01*
Y56338D01*
X85400Y55977D01*
X85402Y55894D01*
X85428Y55834D01*
X85582Y55062D01*
X86305Y53980D01*
X88188Y52097D01*
X88584Y51671D01*
X88859Y51330D01*
X88949Y51201D01*
Y46600D01*
X89151Y45585D01*
X89726Y44725D01*
X90585Y44151D01*
X91600Y43949D01*
X99400D01*
X100414Y44151D01*
X101274Y44725D01*
X101849Y45585D01*
X101932Y46000D01*
X106068D01*
X106151Y45585D01*
X106726Y44725D01*
X107585Y44151D01*
X108600Y43949D01*
X112855D01*
X113961Y43000D01*
X113961Y10861D01*
X112691Y10476D01*
X112605Y10605D01*
X110951Y11710D01*
X109000Y12098D01*
X107049Y11710D01*
X105395Y10605D01*
X105293Y10452D01*
X105252Y10431D01*
X105182Y10404D01*
X105091Y10376D01*
X104977Y10350D01*
X104869Y10334D01*
X30381D01*
X17334Y23381D01*
Y52565D01*
X17400Y52875D01*
X17528Y53256D01*
X17729Y53700D01*
X18010Y54201D01*
X18373Y54755D01*
X18807Y55335D01*
X19990Y56690D01*
X20525Y57233D01*
X20776Y57425D01*
X22299Y59410D01*
X23256Y61721D01*
X23582Y64201D01*
X23256Y66681D01*
X22299Y68992D01*
X20776Y70976D01*
X18791Y72499D01*
X16480Y73456D01*
X14000Y73783D01*
D02*
G37*
%LPD*%
G36*
X90363Y59127D02*
X90272Y58948D01*
X90193Y58752D01*
X90124Y58540D01*
X90065Y58310D01*
X90017Y58063D01*
X89953Y57518D01*
X89937Y57220D01*
X89932Y56905D01*
X87392Y56338D01*
X87383Y56638D01*
X87357Y56918D01*
X87313Y57176D01*
X87251Y57413D01*
X87172Y57629D01*
X87076Y57825D01*
X86961Y57999D01*
X86830Y58152D01*
X86680Y58284D01*
X86513Y58394D01*
X90464Y59288D01*
X90363Y59127D01*
D02*
G37*
G36*
X18494Y58077D02*
X17220Y56618D01*
X16703Y55926D01*
X16265Y55260D01*
X15907Y54619D01*
X15628Y54004D01*
X15430Y53414D01*
X15310Y52849D01*
X15270Y52309D01*
X12730D01*
X12691Y52849D01*
X12571Y53414D01*
X12372Y54004D01*
X12093Y54619D01*
X11735Y55260D01*
X11298Y55926D01*
X10780Y56618D01*
X9507Y58077D01*
X8750Y58845D01*
X19250D01*
X18494Y58077D01*
D02*
G37*
G36*
X91507Y55307D02*
X92445Y54510D01*
X92859Y54220D01*
X93236Y54001D01*
X93577Y53854D01*
X93882Y53780D01*
X94150Y53776D01*
X94381Y53845D01*
X94576Y53986D01*
X91014Y50424D01*
X91155Y50619D01*
X91223Y50851D01*
X91220Y51118D01*
X91146Y51423D01*
X90999Y51764D01*
X90780Y52141D01*
X90490Y52555D01*
X90128Y53006D01*
X89187Y54016D01*
X90984Y55813D01*
X91507Y55307D01*
D02*
G37*
G36*
X122514Y47460D02*
X122488Y47701D01*
X122411Y47917D01*
X122283Y48108D01*
X122103Y48273D01*
X121871Y48412D01*
X121589Y48527D01*
X121255Y48616D01*
X120869Y48679D01*
X120432Y48717D01*
X119944Y48730D01*
Y51270D01*
X120432Y51283D01*
X120869Y51321D01*
X121255Y51384D01*
X121589Y51473D01*
X121871Y51588D01*
X122103Y51727D01*
X122283Y51892D01*
X122411Y52083D01*
X122488Y52299D01*
X122514Y52540D01*
Y47460D01*
D02*
G37*
G36*
X117012Y52299D02*
X117089Y52083D01*
X117217Y51892D01*
X117397Y51727D01*
X117629Y51588D01*
X117911Y51473D01*
X118245Y51384D01*
X118631Y51321D01*
X119068Y51283D01*
X119556Y51270D01*
Y48730D01*
X119068Y48717D01*
X118631Y48679D01*
X118245Y48616D01*
X117911Y48527D01*
X117629Y48412D01*
X117397Y48273D01*
X117217Y48108D01*
X117089Y47917D01*
X117012Y47701D01*
X116986Y47460D01*
Y52540D01*
X117012Y52299D01*
D02*
G37*
G36*
X143799Y45488D02*
X143583Y45411D01*
X143392Y45283D01*
X143227Y45103D01*
X143088Y44871D01*
X142973Y44589D01*
X142884Y44254D01*
X142821Y43869D01*
X142783Y43432D01*
X142770Y42944D01*
X140230D01*
X140217Y43432D01*
X140179Y43869D01*
X140116Y44254D01*
X140027Y44589D01*
X139913Y44871D01*
X139773Y45103D01*
X139608Y45283D01*
X139417Y45411D01*
X139201Y45488D01*
X138960Y45514D01*
X144040D01*
X143799Y45488D01*
D02*
G37*
G36*
X246000Y27000D02*
X272000D01*
X273000Y26000D01*
X273000Y7000D01*
X271000Y5000D01*
X215000Y5000D01*
Y5000D01*
X120000Y5000D01*
X116000Y9000D01*
X116000Y43000D01*
X127000Y43000D01*
X131000Y39000D01*
X157000D01*
X165000Y47000D01*
X226000D01*
X246000Y27000D01*
D02*
G37*
G36*
X106858Y4900D02*
X106687Y5058D01*
X106502Y5199D01*
X106302Y5323D01*
X106087Y5431D01*
X105857Y5523D01*
X105612Y5597D01*
X105352Y5655D01*
X105077Y5697D01*
X104787Y5722D01*
X104482Y5730D01*
Y8270D01*
X104787Y8278D01*
X105077Y8303D01*
X105352Y8345D01*
X105612Y8403D01*
X105857Y8478D01*
X106087Y8569D01*
X106302Y8677D01*
X106502Y8801D01*
X106687Y8942D01*
X106858Y9100D01*
Y4900D01*
D02*
G37*
D11*
X138390Y32346D02*
X141500Y35456D01*
X138390Y31141D02*
Y32346D01*
X126500Y50000D02*
Y50500D01*
D12*
X117000Y153000D02*
X119000Y155000D01*
X105500Y116250D02*
X141000Y80750D01*
X154000D01*
X105500Y116250D02*
Y125000D01*
X105250Y125250D02*
X105500Y125000D01*
X105250Y125250D02*
Y138250D01*
X105000Y138500D02*
X105250Y138250D01*
Y154750D02*
X105500Y155000D01*
X105250Y138750D02*
Y154750D01*
X105000Y138500D02*
X105250Y138750D01*
X122500Y125000D02*
X135500D01*
X29000Y7000D02*
X109000D01*
X14000Y22000D02*
Y64201D01*
Y22000D02*
X29000Y7000D01*
X70000Y103876D02*
Y128000D01*
X94000Y152000D01*
X14000Y89600D02*
X55724D01*
X70000Y103876D01*
X46500Y64200D02*
Y69500D01*
X77000Y100000D01*
Y125000D02*
X91000Y139000D01*
X77000Y100000D02*
Y125000D01*
X141500Y35456D02*
Y50000D01*
X112500D02*
X126500D01*
X95000D02*
X95500D01*
X88662Y56338D02*
X95000Y50000D01*
X88662Y56338D02*
Y60338D01*
X88000Y61000D02*
X88662Y60338D01*
X144000Y133000D02*
Y133000D01*
X136000Y125000D02*
X144000Y133000D01*
X135500Y125000D02*
X136000D01*
X122500Y140000D02*
X135500D01*
X119000Y155000D02*
X122500D01*
X135500D01*
D19*
X214000Y80750D02*
D03*
Y99250D02*
D03*
X194000Y80750D02*
D03*
Y99250D02*
D03*
X174000Y80750D02*
D03*
Y99250D02*
D03*
X154000Y80750D02*
D03*
Y99250D02*
D03*
D22*
X141500Y50000D02*
D03*
X126500D02*
D03*
D23*
X135500Y125000D02*
D03*
X152500D02*
D03*
X105500D02*
D03*
X122500D02*
D03*
X95500Y50000D02*
D03*
X112500D02*
D03*
X135500Y140000D02*
D03*
X152500D02*
D03*
X135500Y155000D02*
D03*
X152500D02*
D03*
X105000Y140000D02*
D03*
X122000D02*
D03*
X105500Y155000D02*
D03*
X122500D02*
D03*
D37*
X306000Y86200D02*
Y101600D01*
X324000Y119601D01*
X284000Y64200D02*
X306000Y86200D01*
X307643Y41357D02*
X323043D01*
X284800Y64200D02*
X307643Y41357D01*
D39*
X284000Y64200D02*
D03*
X46500D02*
D03*
D40*
X284000Y115000D02*
D03*
X46500D02*
D03*
D41*
X324000Y40400D02*
D03*
X324000Y65799D02*
D03*
X324000Y119601D02*
D03*
X324000Y145000D02*
D03*
X14000Y89600D02*
D03*
X14000Y64201D02*
D03*
D42*
X324000Y15000D02*
D03*
X324000Y94201D02*
D03*
X14000Y115000D02*
D03*
D43*
X309890Y124140D02*
D03*
X299890Y144140D02*
D03*
X279890D02*
D03*
Y24140D02*
D03*
X259890Y144140D02*
D03*
X249890Y124140D02*
D03*
X259890Y104140D02*
D03*
X249890Y44140D02*
D03*
X239890Y144140D02*
D03*
X219890Y64140D02*
D03*
X199890D02*
D03*
X179890D02*
D03*
X159889D02*
D03*
X139889D02*
D03*
X89889Y84140D02*
D03*
X59889Y144140D02*
D03*
X39890D02*
D03*
X19890D02*
D03*
X9890Y4140D02*
D03*
X109000Y7000D02*
D03*
X116500Y150730D02*
D03*
X94000Y152000D02*
D03*
X91000Y139000D02*
D03*
X88000Y61000D02*
D03*
X239890Y24141D02*
D03*
Y10141D02*
D03*
X236390Y31141D02*
D03*
X232890Y24141D02*
D03*
X236390Y17141D02*
D03*
X232890Y10141D02*
D03*
X225890Y38141D02*
D03*
X229390Y31141D02*
D03*
X225890Y24141D02*
D03*
X229390Y17141D02*
D03*
X225890Y10141D02*
D03*
X218890Y38141D02*
D03*
X222390Y31141D02*
D03*
X218890Y24141D02*
D03*
X222390Y17141D02*
D03*
X218890Y10141D02*
D03*
X162890Y38141D02*
D03*
X166390Y31141D02*
D03*
X162890Y24141D02*
D03*
X166390Y17141D02*
D03*
X162890Y10141D02*
D03*
X159390Y31141D02*
D03*
X155890Y24141D02*
D03*
X159390Y17141D02*
D03*
X155890Y10141D02*
D03*
X152390Y31141D02*
D03*
X148890Y24141D02*
D03*
X152390Y17141D02*
D03*
X148890Y10141D02*
D03*
X145390Y31141D02*
D03*
X141890Y24141D02*
D03*
X145390Y17141D02*
D03*
X141890Y10141D02*
D03*
X138390Y31141D02*
D03*
X134890Y24141D02*
D03*
X138390Y17141D02*
D03*
X134890Y10141D02*
D03*
X131390Y31141D02*
D03*
X127890Y24141D02*
D03*
X131390Y17141D02*
D03*
X127890Y10141D02*
D03*
X120890Y38141D02*
D03*
X124390Y31141D02*
D03*
X120890Y24141D02*
D03*
X124390Y17141D02*
D03*
X120890Y10141D02*
D03*
X267890Y80141D02*
D03*
Y52141D02*
D03*
X260891Y80141D02*
D03*
X264391Y73141D02*
D03*
X260891Y66141D02*
D03*
X264391Y59141D02*
D03*
X253890Y94141D02*
D03*
X257390Y87141D02*
D03*
X253890Y80141D02*
D03*
X257390Y73141D02*
D03*
X253890Y66141D02*
D03*
X257390Y59141D02*
D03*
X246890Y94141D02*
D03*
X250390Y87141D02*
D03*
X246890Y80141D02*
D03*
X250390Y73141D02*
D03*
X239890Y108141D02*
D03*
X243390Y101141D02*
D03*
X239890Y94141D02*
D03*
X243390Y87141D02*
D03*
X239890Y80141D02*
D03*
X243390Y73141D02*
D03*
X232890Y108141D02*
D03*
X236390Y101141D02*
D03*
X232890Y94141D02*
D03*
X236390Y87141D02*
D03*
X225890Y122141D02*
D03*
X229390Y115141D02*
D03*
X225890Y108141D02*
D03*
X229390Y101141D02*
D03*
X225890Y94141D02*
D03*
X229390Y87141D02*
D03*
X218890Y122141D02*
D03*
X222390Y115141D02*
D03*
X144000Y133000D02*
D03*
X121250Y135500D02*
D03*
D44*
X152500Y100750D02*
Y125000D01*
Y100750D02*
X154000Y99250D01*
X152500Y125000D02*
Y140000D01*
Y155000D01*
M02*
